/* XPM */
static char *play_forward_xpm[]={
"15 15 2 1",
". c None",
"# c #000000",
"...............",
"....#..........",
"....##.........",
"....###........",
"....####.......",
"....#####......",
"....######.....",
"....#######....",
"....######.....",
"....#####......",
"....####.......",
"....###........",
"....##.........",
"....#..........",
"..............."};
