#define ibg_width 21
#define ibg_height 21
static unsigned char ibg_bits[] = {
  0x00, 0x00, 0x00, 0x00, 0x00, 0x00, 0x00, 0x00, 0x00, 0xfc, 0x01, 0x00,
  0x8c, 0x03, 0x00, 0x0c, 0x03, 0x00, 0x0c, 0xc3, 0x05, 0x8c, 0x61, 0x07,
  0xfc, 0x30, 0x06, 0x8c, 0x31, 0x06, 0x0c, 0x33, 0x06, 0x0c, 0x33, 0x06,
  0x8c, 0x63, 0x07, 0xfc, 0xc1, 0x06, 0x00, 0x00, 0x06, 0x00, 0x30, 0x07,
  0x00, 0xe0, 0x03, 0x00, 0x00, 0x00, 0x00, 0x00, 0x00, 0x00, 0x00, 0x00,
  0x00, 0x00, 0x00, };
