#define isave_width 21
#define isave_height 21
static unsigned char isave_bits[] = {
  0x00, 0x01, 0x00, 0x06, 0x01, 0x00, 0xfc, 0x02, 0x00, 0x88, 0x03, 0x00,
  0x90, 0x1c, 0x00, 0x50, 0xe4, 0x01, 0x60, 0x08, 0x06, 0x40, 0x08, 0x03,
  0xa0, 0x90, 0x00, 0x20, 0x51, 0x00, 0x20, 0x32, 0x00, 0x10, 0x2a, 0x00,
  0x10, 0x24, 0x00, 0x10, 0x4b, 0x00, 0x88, 0x50, 0x00, 0x48, 0xa0, 0x00,
  0x38, 0xc0, 0x00, 0x0c, 0x40, 0x01, 0x04, 0x80, 0x01, 0x00, 0x00, 0x03,
  0x00, 0x00, 0x02, };
