#define istep_width 21
#define istep_height 21
static unsigned char istep_bits[] = {
  0x00, 0x00, 0x00, 0x00, 0x00, 0x00, 0x00, 0x00, 0x00, 0xc0, 0x0f, 0x00,
  0xe0, 0x1c, 0x00, 0x60, 0x18, 0x00, 0xe0, 0x00, 0x00, 0xc0, 0x03, 0x00,
  0x00, 0x0f, 0x00, 0x00, 0x1c, 0x00, 0x00, 0x18, 0x00, 0x60, 0x18, 0x00,
  0xe0, 0x0e, 0x00, 0xc0, 0x07, 0x00, 0x00, 0x00, 0x00, 0x00, 0x00, 0x00,
  0x00, 0x00, 0x00, 0x00, 0x00, 0x00, 0x00, 0x00, 0x00, 0x00, 0x00, 0x00,
  0x00, 0x00, 0x00, };
