/* XPM */
static char *look_profile_on_xpm[] = {
/* columns rows colors chars-per-pixel */
"15 12 93 2",
"   c #1C1C1B",
".  c #1D1D1B",
"X  c #20201E",
"o  c #22221F",
"O  c #222220",
"+  c #232320",
"@  c #292927",
"#  c #2D2D2A",
"$  c #2D2D2B",
"%  c #34342F",
"&  c #303031",
"*  c #313131",
"=  c #333331",
"-  c gray20",
";  c #343431",
":  c #353532",
">  c #353533",
",  c #363634",
"<  c #393934",
"1  c #383836",
"2  c #393936",
"3  c #393937",
"4  c gray24",
"5  c #444441",
"6  c #464646",
"7  c #4A4A48",
"8  c #4B4B49",
"9  c #4F4F4C",
"0  c #4F4F4D",
"q  c #51514E",
"w  c #525253",
"e  c #575756",
"r  c #565659",
"t  c #656566",
"y  c #6C6C6C",
"u  c #777775",
"i  c #787876",
"p  c gray47",
"a  c #7B7B79",
"s  c #7B7B7A",
"d  c #7D7D78",
"f  c #7C7C7A",
"g  c #7D7D7F",
"h  c none",
"j  c #848484",
"k  c #858584",
"l  c #868684",
"z  c #8E8E8E",
"x  c gray56",
"c  c #91918E",
"v  c #91918F",
"b  c #949491",
"n  c gray58",
"m  c #959594",
"M  c #979795",
"N  c #979796",
"B  c gray60",
"V  c #9D9D9C",
"C  c gray62",
"Z  c #A1A1A2",
"A  c #A2A2A3",
"S  c #A3A3A2",
"D  c #A4A4A5",
"F  c gray65",
"G  c #ABABAA",
"H  c #ACACAB",
"J  c gray68",
"K  c #B1B1B2",
"L  c #B6B6B1",
"P  c #B4B4B5",
"I  c #B9B9B9",
"U  c gray73",
"Y  c gray75",
"T  c #C6C6C6",
"R  c gray78",
"E  c #C8C8C7",
"W  c #CACACA",
"Q  c #CCCCCB",
"!  c #CECECE",
"~  c #D0D0CF",
"^  c #D3D3CF",
"/  c #D1D1D2",
"(  c #D2D2D1",
")  c LightGray",
"_  c #D3D3D4",
"`  c gray84",
"'  c #D8D8D8",
"]  c #DADAD9",
"[  c gray86",
"{  c gray87",
"}  c #E1E1E1",
"|  c gray90",
" . c #F1F1F0",
/* pixels */
"h h h h ] 8 ( h h h h { M h h ",
"h h h ~ x H V h h h W a n [ h ",
"h h | j ] h } h h h h h U V h ",
"h h u R h h h h h h h h h B h ",
"h _ t m ( h h h h h h h h J h ",
"h d , % 8 ( h h h A s r y g Y ",
"{ 0 v j O 3 6 w &   s 3 o : F ",
"` M 3 O + O p K = l 0 $ + . D ",
"H o O + + + x W 4 5 + + + : T ",
"U # + + + = G h e X + + + q  .",
"h S * X @ s h h L 3 o + : i h ",
"h h ! A P h h h h ^ v b Q h h "
};
