/* XPM */
static char *look_profile_apply_all_xpm[] = {
/* columns rows colors chars-per-pixel */
"29 15 6 1",
"  c black",
". c none",
"X c #BDBEBD",
"o c #FF8080",
"O c #DEDBDE",
"+ c gray100",
/* pixels */
"...............  ............",
".............. +  ...........",
"............. +   ...........",
"............ ++  ............",
"ooooooooooo ++  ooooooooooooo",
"o          ++               o",
"o++  ++++ ++  +  ++++++++++ o",
"o++  ++++ +  ++  ++++++++++ o",
"o++  +++    +++  ++++++++++ o",
"o+O  +++  ++++O  +++++++++O o",
"o+O  +++++++++O  +++++++++O o",
"oOO  +++++++OOO  +++++++OOO o",
"oOX  ++++OOOOOX  ++++OOOOOX o",
"o                           o",
"ooooooooooooooooooooooooooooo"
};
