/* XPM */
static char * picker_gray_xpm[] = {
"24 24 4 1",
" 	c None",
".	c #000000",
"+	c #FFFFFF",
"@	c #7F7F7F",
"                        ",
"                        ",
"                 ...    ",
"                .+++.   ",
"               .+++++.  ",
"             ...++++.@. ",
"            .++++....@. ",
"             .+..@...@. ",
"              .@@.@@@.  ",
"             .@@@.@..   ",
"            .@@..@@.    ",
"           .@@.. .@.    ",
"          .@@..         ",
"         .@@..          ",
"        .@@..           ",
"       .@@..            ",
"      .@@..             ",
"     .@@..              ",
"    .@@..               ",
"   .@@..                ",
"   .@..                 ",
"  ....                  ",
"  .                     ",
"                        "};
