/* XPM */
static char * picker_gray_is_xpm[] = {
"24 24 3 1",
" 	c None",
".	c #7F7F7F",
"+	c #FFFFFF",
"                        ",
"                        ",
"                 ...    ",
"                ....+   ",
"               ......+  ",
"             .........+ ",
"            ..........+ ",
"             .........+ ",
"              .......+  ",
"             ......++   ",
"            ...++..+    ",
"           ...++ +.+    ",
"          ...++         ",
"         ...++          ",
"        ...++           ",
"       ...++            ",
"      ...++             ",
"     ...++              ",
"    ...++               ",
"   ...++                ",
"   ..++                 ",
"  ++++                  ",
"  +                     ",
"                        "};
